<?xml version="1.0" standalone="no"?>
<!DOCTYPE svg PUBLIC "-//W3C//DTD SVG 20010904//EN"
 "http://www.w3.org/TR/2001/REC-SVG-20010904/DTD/svg10.dtd">
<svg version="1.0" xmlns="http://www.w3.org/2000/svg"
 width="147.000000pt" height="150.000000pt" viewBox="0 0 147.000000 150.000000"
 preserveAspectRatio="xMidYMid meet">

<g transform="translate(0.000000,150.000000) scale(0.100000,-0.100000)"
fill="#000000" stroke="none">
<path d="M733 1333 c-12 -2 -27 -11 -33 -19 -7 -8 -21 -14 -32 -14 -10 0 -17
-3 -15 -7 3 -5 -15 -6 -39 -4 -27 2 -44 -1 -44 -8 0 -6 -9 -11 -19 -11 -28 0
-52 -11 -45 -21 3 -5 1 -9 -5 -9 -37 0 -95 -112 -97 -190 -1 -30 -5 -80 -9
-110 -5 -40 -4 -51 4 -40 8 12 10 7 8 -20 -2 -27 2 -37 18 -45 17 -9 20 -20
20 -77 0 -78 10 -81 18 -6 7 58 29 83 80 91 43 6 41 -8 -3 -26 -29 -11 -40
-21 -40 -36 0 -12 4 -21 10 -21 5 0 7 7 3 16 -5 12 1 15 28 12 26 -2 33 -7 31
-20 -2 -10 -1 -18 2 -18 12 0 56 24 56 31 0 4 3 14 6 22 4 10 -4 21 -23 31
-25 14 -26 15 -6 16 28 0 37 14 18 30 -21 18 -104 5 -130 -20 l-22 -21 1 73
c1 68 3 74 26 86 14 7 17 10 8 7 -10 -2 -18 0 -18 5 0 6 7 10 16 10 12 0 14 3
6 13 -19 23 22 75 80 102 56 26 84 25 128 -5 14 -9 31 -15 38 -13 18 7 42 -16
35 -33 -7 -20 -26 -17 -58 8 -18 14 -26 17 -23 7 2 -8 20 -22 39 -31 19 -10
29 -18 23 -18 -25 0 -25 -34 1 -56 31 -26 32 -47 3 -63 -13 -6 -32 -26 -44
-44 -21 -33 -20 -45 16 -162 2 -5 0 -17 -3 -25 -3 -8 -7 -28 -9 -45 -3 -27 -7
-30 -42 -33 -22 -2 -49 -10 -60 -18 -11 -8 -31 -14 -44 -14 -12 0 -25 -7 -28
-15 -9 -24 5 -68 20 -62 7 3 20 -3 29 -14 10 -11 29 -19 44 -18 26 0 27 1 6 9
-12 5 -24 18 -28 29 -3 12 -15 21 -26 21 -10 0 -19 4 -19 9 0 11 51 21 111 21
37 0 47 -3 43 -14 -3 -8 3 -16 15 -19 21 -5 29 -31 13 -41 -5 -3 -26 -6 -46
-8 -33 -2 -36 -4 -20 -15 10 -7 33 -13 51 -13 37 0 44 -15 12 -23 -12 -3 -18
-10 -14 -17 4 -6 2 -17 -5 -25 -8 -10 -8 -15 4 -22 35 -19 -25 -53 -88 -49
-26 1 -49 -1 -51 -5 -6 -9 61 -69 78 -70 7 0 27 -2 46 -3 33 -3 70 -36 71 -63
0 -17 22 -16 90 2 85 22 189 79 250 134 l55 51 -28 21 c-28 21 -118 195 -118
227 0 9 5 42 11 72 11 59 4 151 -13 161 -5 4 -11 45 -13 90 -7 156 -21 213
-72 288 -44 64 -110 97 -176 87 -32 -6 -37 -4 -33 9 4 8 3 14 -1 14 -4 -1 -17
-4 -29 -6z"/>
<path d="M566 1023 c-6 -14 -5 -15 5 -6 7 7 10 15 7 18 -3 3 -9 -2 -12 -12z"/>
<path d="M518 983 c-10 -2 -18 -9 -18 -14 0 -6 10 -5 23 2 37 20 36 23 -5 12z"/>
<path d="M530 377 c0 -34 -35 -77 -64 -77 -8 0 -21 -11 -30 -24 -16 -25 -15
-25 40 -52 46 -23 57 -25 65 -13 12 20 12 199 -1 199 -5 0 -10 -15 -10 -33z"/>
</g>
</svg>
